# Blender 4.1.1
# www.blender.org
mtllib Skybox.mtl
o Cube
v 150.000000 150.000000 -150.000000
v 150.000000 -150.000000 -150.000000
v 150.000000 150.000000 150.000000
v 150.000000 -150.000000 150.000000
v -150.000000 150.000000 -150.000000
v -150.000000 -150.000000 -150.000000
v -150.000000 150.000000 150.000000
v -150.000000 -150.000000 150.000000
vn -0.0000 -1.0000 -0.0000
vn -0.0000 -0.0000 -1.0000
vn 1.0000 -0.0000 -0.0000
vn -0.0000 1.0000 -0.0000
vn -1.0000 -0.0000 -0.0000
vn -0.0000 -0.0000 1.0000
vt 0.999900 0.000100
vt 0.999900 0.999900
vt 0.000100 0.999900
vt 0.000100 0.000100
vt 0.375000 0.750000
vt 0.375000 1.000000
vt 0.625000 1.000000
vt 0.625000 0.750000
vt 0.375000 0.000000
vt 0.375000 0.250000
vt 0.625000 0.250000
vt 0.625000 0.000000
vt 0.125000 0.500000
vt 0.125000 0.750000
vt 0.375000 0.500000
vt 0.625000 0.500000
s 0
usemtl Back
f 2/15/5 4/5/5 3/8/5 1/16/5
usemtl Front
f 8/9/3 6/10/3 5/11/3 7/12/3
usemtl Left
f 4/5/2 8/6/2 7/7/2 3/8/2
usemtl Right
f 6/10/6 2/15/6 1/16/6 5/11/6
usemtl Bottom
f 6/13/4 8/14/4 4/5/4 2/15/4
usemtl TopBun
f 1/1/1 3/2/1 7/3/1 5/4/1
