# Blender 4.1.1
# www.blender.org
mtllib Skybox.mtl
o Cube
v 300.000000 300.000000 -300.000000
v 300.000000 -300.000000 -300.000000
v 300.000000 300.000000 300.000000
v 300.000000 -300.000000 300.000000
v -300.000000 300.000000 -300.000000
v -300.000000 -300.000000 -300.000000
v -300.000000 300.000000 300.000000
v -300.000000 -300.000000 300.000000
vn -0.0000 -1.0000 -0.0000
vn -0.0000 -0.0000 -1.0000
vn 1.0000 -0.0000 -0.0000
vn -0.0000 1.0000 -0.0000
vn -1.0000 -0.0000 -0.0000
vn -0.0000 -0.0000 1.0000
vt 0.999900 0.000100
vt 0.999900 0.999900
vt 0.000100 0.999900
vt 0.000100 0.000100
vt 0.999900 0.000100
vt 0.999900 0.999900
vt 0.000100 0.999900
vt 0.000100 0.000100
vt 0.000100 0.999900
vt 0.000100 0.000100
vt 0.999900 0.000100
vt 0.999900 0.999900
vt 0.999900 0.999900
vt 0.000100 0.999900
vt 0.000100 0.000100
vt 0.999900 0.000100
s 0
usemtl Back
f 2/5/5 4/6/5 3/7/5 1/8/5
usemtl Front
f 8/9/3 6/10/3 5/11/3 7/12/3
usemtl Left
f 4/5/2 8/6/2 7/7/2 3/8/2
usemtl Right
f 6/9/6 2/10/6 1/11/6 5/12/6
usemtl Bottom
f 6/13/4 8/14/4 4/15/4 2/16/4
usemtl Up
f 1/1/1 3/2/1 7/3/1 5/4/1
